<svg xmlns="http://www.w3.org/2000/svg" width="24" height="21.334" viewBox="0 0 24 21.334"><defs><style>.a{fill:#0083ca;}</style></defs><path class="a" d="M22.667,7.7V1.333A1.347,1.347,0,0,0,21.334,0h0A1.33,1.33,0,0,0,20.5.293L16.958,3.127a10.113,10.113,0,0,1-6.291,2.206h-8A2.667,2.667,0,0,0,0,8v4a2.667,2.667,0,0,0,2.667,2.667L2.647,16a10.555,10.555,0,0,0,1.065,4.623,1.308,1.308,0,0,0,1.183.711H9.323A1.325,1.325,0,0,0,10.4,19.227,5.306,5.306,0,0,1,9.313,16,5.042,5.042,0,0,1,9.5,14.667h1.17a10.111,10.111,0,0,1,6.291,2.206L20.5,19.708a1.333,1.333,0,0,0,2.166-1.041V12.3a2.645,2.645,0,0,0,0-4.593ZM9.323,20H4.911A8.991,8.991,0,0,1,3.98,16.02L4,14.687v-.02H8.139A6.348,6.348,0,0,0,7.98,16a6.528,6.528,0,0,0,1.343,4ZM2.667,13.334A1.335,1.335,0,0,1,1.333,12V8A1.335,1.335,0,0,1,2.667,6.667h8v6.667Zm18.669,5.289a.207.207,0,0,1-.01.038l-3.535-2.828A11.451,11.451,0,0,0,12,13.422V6.578a11.451,11.451,0,0,0,5.791-2.41l3.536-2.829,0,0s0,0,0-.007l0,17.289Z"/></svg>