<svg xmlns="http://www.w3.org/2000/svg" width="24" height="16.003" viewBox="0 0 24 16.003"><defs><style>.a{fill:#0083ca;}</style></defs><path class="a" d="M22.666,65.334a1.335,1.335,0,0,0-.758.238l-4.572,2.913V65.992A2.081,2.081,0,0,0,15.178,64H2.159A2.081,2.081,0,0,0,0,65.992V78.011A2.081,2.081,0,0,0,2.159,80H15.178a2.081,2.081,0,0,0,2.159-1.992V75.519L21.9,78.432A1.336,1.336,0,0,0,24,77.356V66.646a1.319,1.319,0,0,0-1.334-1.313ZM16,78.011a.766.766,0,0,1-.825.658H2.159a.766.766,0,0,1-.825-.658V65.992a.766.766,0,0,1,.825-.658H15.178a.766.766,0,0,1,.825.658V78.011Zm6.668-.654-.05-.054-5.284-3.367V70.064l5.334-3.4Z" transform="translate(0 -64)"/></svg>