<svg xmlns="http://www.w3.org/2000/svg" width="24" height="21" viewBox="0 0 24 21"><defs><style>.a{fill:#0083ca;}</style></defs><path class="a" d="M21.75,36.5H16.5V33.125A1.125,1.125,0,0,0,15.375,32H8.625A1.125,1.125,0,0,0,7.5,33.125V36.5H2.25A2.25,2.25,0,0,0,0,38.75v12A2.25,2.25,0,0,0,2.25,53h19.5A2.25,2.25,0,0,0,24,50.75v-12A2.25,2.25,0,0,0,21.75,36.5ZM9,33.5h6v3H9ZM22.5,50.75a.751.751,0,0,1-.75.75H2.25a.751.751,0,0,1-.75-.75V44H9v1.875A1.125,1.125,0,0,0,10.125,47h3.75A1.125,1.125,0,0,0,15,45.875V44h7.5Zm-12-5.25V44h3v1.5Zm12-3H1.5V38.75A.751.751,0,0,1,2.25,38h19.5a.751.751,0,0,1,.75.75Z" transform="translate(0 -32)"/></svg>