<svg xmlns="http://www.w3.org/2000/svg" width="24" height="27.435" viewBox="0 0 24 27.435"><defs><style>.a{fill:#0083ca;}</style></defs><path class="a" d="M21.015,6a2.958,2.958,0,0,0-1.286.289V4.715A3,3,0,0,0,15.3,2.079a3,3,0,0,0-5.712,0A3,3,0,0,0,5.154,4.715V12.9a3,3,0,0,0-4.6,3.821L6.644,25.9A3.422,3.422,0,0,0,9.5,27.435h9.677a3.441,3.441,0,0,0,3.365-2.754l1.1-5.53a19.052,19.052,0,0,0,.364-3.7V9A3,3,0,0,0,21.015,6ZM22.3,15.448a17.308,17.308,0,0,1-.332,3.365l-1.1,5.53a1.711,1.711,0,0,1-1.683,1.377H9.5a1.729,1.729,0,0,1-1.431-.766L1.955,15.743A1.285,1.285,0,0,1,4.061,14.27l2.025,2.915a.43.43,0,0,0,.782-.246V4.715a1.286,1.286,0,1,1,2.572,0v8.574a.43.43,0,0,0,.429.429h.857a.43.43,0,0,0,.429-.429V3a1.286,1.286,0,0,1,2.572,0V13.289a.43.43,0,0,0,.429.429h.857a.43.43,0,0,0,.429-.429V4.715a1.286,1.286,0,0,1,2.572,0v8.574a.43.43,0,0,0,.429.429H19.3a.43.43,0,0,0,.429-.429V9A1.286,1.286,0,1,1,22.3,9Zm-4.431.573a2.611,2.611,0,0,0-1.624-.589,3.633,3.633,0,0,0-2.518,1.238,3.633,3.633,0,0,0-2.518-1.238,2.6,2.6,0,0,0-1.624.589A2.654,2.654,0,0,0,9.387,20l3.89,3.821a.654.654,0,0,0,.911,0L18.078,20a2.662,2.662,0,0,0-.209-3.976Zm-1,2.754-3.14,3.086-3.14-3.086a.953.953,0,0,1,.622-1.629,2.177,2.177,0,0,1,1.318.745l1.2,1.184,1.2-1.184a2.15,2.15,0,0,1,1.318-.745.953.953,0,0,1,.622,1.629Z" transform="translate(-0.01)"/></svg>