<svg xmlns="http://www.w3.org/2000/svg" width="24" height="27.429" viewBox="0 0 24 27.429"><defs><style>.a{fill:#0083ca;}</style></defs><path class="a" d="M16.8,15.429c-1.538,0-2.277.857-4.8.857s-3.257-.857-4.8-.857a7.2,7.2,0,0,0-7.2,7.2v2.229a2.572,2.572,0,0,0,2.571,2.571H21.429A2.572,2.572,0,0,0,24,24.857V22.629A7.2,7.2,0,0,0,16.8,15.429Zm5.486,9.429a.86.86,0,0,1-.857.857H2.571a.86.86,0,0,1-.857-.857V22.629A5.489,5.489,0,0,1,7.2,17.143c1.05,0,2.095.857,4.8.857s3.75-.857,4.8-.857a5.489,5.489,0,0,1,5.486,5.486ZM12,13.714A6.857,6.857,0,1,0,5.143,6.857,6.857,6.857,0,0,0,12,13.714Zm0-12A5.143,5.143,0,1,1,6.857,6.857,5.151,5.151,0,0,1,12,1.714Z"/></svg>