<svg xmlns="http://www.w3.org/2000/svg" width="24" height="27.429" viewBox="0 0 24 27.429"><defs><style>.a{fill:#0083ca;}</style></defs><path class="a" d="M12,13.714A6.857,6.857,0,1,0,5.143,6.857,6.857,6.857,0,0,0,12,13.714Zm0-12A5.143,5.143,0,1,1,6.857,6.857,5.151,5.151,0,0,1,12,1.714ZM16.923,16.3,14.8,23.679,12.98,18.23l1.339-1.339a.857.857,0,0,0-.605-1.462H10.286a.856.856,0,0,0-.605,1.462L11.02,18.23,9.2,23.679,7.077,16.3A7.187,7.187,0,0,0,0,23.486v1.371a2.572,2.572,0,0,0,2.571,2.571H21.429A2.572,2.572,0,0,0,24,24.857V23.486A7.2,7.2,0,0,0,16.923,16.3ZM2.571,25.714a.86.86,0,0,1-.857-.857V23.486a5.505,5.505,0,0,1,4.12-5.3l2.175,7.527Zm7.763,0,1.666-5,1.666,5H10.334Zm11.952-.857a.86.86,0,0,1-.857.857H15.991l2.17-7.527a5.505,5.505,0,0,1,4.12,5.3v1.371Z"/></svg>