<svg xmlns="http://www.w3.org/2000/svg" width="160" height="68.605" viewBox="0 0 160 68.605"><defs><style>.a{fill:#1d2356;}.b{fill:#149ed9;}.c{fill:#fff;}</style></defs><g transform="translate(0 0)"><path class="a" d="M216.8,35.73h11.525v2.59h-8.581v4.353h8.393v2.6h-8.393v4.666h8.581v2.6H216.8Z" transform="translate(-148.904 -24.542)"/><path class="a" d="M258.3,66.33h6.044v2.286H258.3Z" transform="translate(-177.407 -45.559)"/><path class="a" d="M284.1,35.73h8.268c3.069,0,4.792,1.91,4.792,4.29a3.769,3.769,0,0,1-2.913,3.852,4.148,4.148,0,0,1,3.257,4.134c0,2.6-1.754,4.541-4.885,4.541h-8.487V35.73Zm7.673,6.952a2.185,2.185,0,1,0,0-4.353h-4.729v4.353Zm.125,7.266a2.255,2.255,0,0,0,2.568-2.349,2.31,2.31,0,0,0-2.568-2.317h-4.854v4.666Z" transform="translate(-195.128 -24.542)"/><path class="a" d="M332,55.919a6.265,6.265,0,1,1,12.527,0,6.265,6.265,0,1,1-12.527,0Zm9.8,0c0-2.13-1.253-4.04-3.539-4.04s-3.508,1.879-3.508,4.04,1.253,4.071,3.508,4.071S341.8,58.08,341.8,55.919Z" transform="translate(-228.027 -34.02)"/><path class="a" d="M378.107,58.224,374.944,62.7H372l4.478-6.263-4.2-5.919h2.975l2.913,4.134,2.881-4.134h2.975l-4.2,5.922,4.478,6.263h-2.975Z" transform="translate(-255.5 -34.7)"/><path class="a" d="M214.3,130.736a8.459,8.459,0,0,1,8.706-8.706,7.625,7.625,0,0,1,6.89,3.789l-2.505,1.284a5.011,5.011,0,0,0-4.384-2.443,6.09,6.09,0,0,0,0,12.151,5.011,5.011,0,0,0,4.384-2.443l2.505,1.284a7.725,7.725,0,0,1-6.89,3.789A8.459,8.459,0,0,1,214.3,130.736Z" transform="translate(-147.187 -83.815)"/><path class="a" d="M267.3,143.119a6.265,6.265,0,1,1,6.263,6.42A6.1,6.1,0,0,1,267.3,143.119Zm9.8,0c0-2.13-1.253-4.04-3.539-4.04s-3.508,1.879-3.508,4.04,1.253,4.071,3.508,4.071S277.1,145.311,277.1,143.119Z" transform="translate(-183.589 -93.911)"/><path class="a" d="M314.3,122.93h2.662v16.817H314.3Z" transform="translate(-215.87 -84.433)"/><path class="a" d="M332.1,122.93h2.662v16.817H332.1Z" transform="translate(-228.095 -84.433)"/><path class="a" d="M353.67,136.83c3.664,0,6.013,2.787,6.013,6.639v.626h-9.4a3.679,3.679,0,0,0,3.883,3.351,5.011,5.011,0,0,0,3.445-1.347l1.221,1.754a7.132,7.132,0,0,1-4.948,1.754,6.391,6.391,0,0,1-.219-12.777Zm-3.445,5.387h6.858a3.266,3.266,0,0,0-3.445-3.226,3.337,3.337,0,0,0-3.414,3.216Z" transform="translate(-238.672 -93.98)"/><path class="a" d="M392.548,150.378a4.738,4.738,0,0,0,3.852,1.566c1.754,0,3.6-.814,3.6-3.32v-1.472a4.823,4.823,0,0,1-3.915,2c-3.1,0-5.387-2.255-5.387-6.263,0-3.946,2.286-6.263,5.387-6.263a4.867,4.867,0,0,1,3.915,2v-1.691h2.662V148.5c0,4.384-3.257,5.574-6.263,5.574a6.858,6.858,0,0,1-5.1-1.816ZM400,140.67a3.874,3.874,0,0,0-3.132-1.628c-2.1,0-3.445,1.566-3.445,3.915s1.347,3.915,3.445,3.915A3.959,3.959,0,0,0,400,145.242Z" transform="translate(-268.343 -93.843)"/><path class="a" d="M441.97,136.83c3.664,0,6.013,2.787,6.013,6.639v.626h-9.4a3.679,3.679,0,0,0,3.883,3.351,5.011,5.011,0,0,0,3.445-1.347l1.221,1.744a7.131,7.131,0,0,1-4.948,1.754,6.386,6.386,0,0,1-.219-12.768Zm-3.414,5.377h6.858a3.266,3.266,0,0,0-3.445-3.226A3.351,3.351,0,0,0,438.556,142.207Z" transform="translate(-299.319 -93.98)"/><path class="a" d="M479.221,145.772a6.382,6.382,0,0,0,4.134,1.722c1.6,0,2.38-.6,2.38-1.5,0-1.065-1.284-1.441-2.787-1.754-2.1-.438-4.572-1-4.572-3.727,0-2,1.722-3.7,4.792-3.7a6.89,6.89,0,0,1,4.729,1.722l-1.1,1.879a4.973,4.973,0,0,0-3.6-1.472c-1.378,0-2.286.5-2.286,1.378,0,.94,1.221,1.253,2.662,1.6,2.13.438,4.729,1.065,4.729,3.946,0,2.13-1.785,3.789-5.073,3.789a7.532,7.532,0,0,1-5.23-1.879Z" transform="translate(-328.303 -93.969)"/><path class="b" d="M67.666,75.094,46.307,83.925a12.114,12.114,0,0,1,5.95-11.462,13.466,13.466,0,0,1,1.5-.752A12.139,12.139,0,0,1,67.666,75.094Z" transform="translate(-31.776 -48.623)"/><path class="b" d="M50.389,5.64,26.651.075a2.045,2.045,0,0,0-1.065,0L1.816,5.64A2.38,2.38,0,0,0,0,7.964V41A21.781,21.781,0,0,0,5.136,55.065c3.727,4.384,9.959,9.552,20.137,13.4a2.424,2.424,0,0,0,1.628,0c10.178-3.852,16.41-9.019,20.137-13.4A21.609,21.609,0,0,0,52.175,41V7.964A2.321,2.321,0,0,0,50.389,5.64Zm-19.1,39.836a12,12,0,0,0,6.483-6.389l6.013,2.505.752.313A19.323,19.323,0,0,1,34.1,52.272a16.436,16.436,0,0,1-3.194,1,19.389,19.389,0,1,1,5.606-35.608l.031.031A19.865,19.865,0,0,1,42.31,23.8,21.61,21.61,0,0,1,43.656,26.5a20.7,20.7,0,0,1,1.253,4.322l-27.5,11.4a12.214,12.214,0,0,0,13.874,3.257Z" transform="translate(0 -0.005)"/><path class="c" d="M53.59,71.881a12.129,12.129,0,0,1-15.909,6.357A11.753,11.753,0,0,1,33.3,75.013l27.5-11.4a20.7,20.7,0,0,0-1.253-4.322,19.461,19.461,0,0,0-7.14-8.8l-.031-.031a19.382,19.382,0,1,0-5.637,35.567,18.9,18.9,0,0,0,3.194-1A19.222,19.222,0,0,0,60.355,74.659l-.752-.313ZM31.23,62.608a12.016,12.016,0,0,1,5.1-5.95,13.467,13.467,0,0,1,1.5-.752,12.139,12.139,0,0,1,13.9,3.382L30.384,68.12A12.665,12.665,0,0,1,31.23,62.608Z" transform="translate(-15.853 -32.789)"/></g></svg>